<svg xmlns="http://www.w3.org/2000/svg" width="150" height="150" viewBox="0 0 150 150"><path d="M21 43.024h27.65c7.537 0 12.896 2.235 16.082 6.705 1.869 2.641 2.804 5.687 2.804 9.142 0 4.034-1.146 7.342-3.438 9.925-1.19 1.365-2.902 2.612-5.137 3.745 3.279 1.248 5.732 2.655 7.356 4.222 2.874 2.787 4.309 6.633 4.309 11.537 0 4.121-1.3 7.852-3.898 11.188-3.885 4.99-10.06 7.488-18.527 7.488H21V43.024zm24.413 27.034c3.696 0 6.569-.507 8.623-1.523 3.224-1.596 4.838-4.47 4.838-8.621 0-4.178-1.716-6.993-5.146-8.445-1.937-.812-4.812-1.219-8.623-1.219H29.488v19.806h15.924v.002zm2.928 29.514c5.361 0 9.184-1.537 11.469-4.613 1.436-1.945 2.153-4.295 2.153-7.053 0-4.641-2.095-7.807-6.284-9.488-2.227-.902-5.17-1.35-8.832-1.35H29.488v22.504h18.853zm47.671-56.548h9.778L129 106.975h-9.49l-6.675-19.156H87.747l-6.936 19.156h-8.88l24.081-63.951zm14.365 37.744l-9.847-28.251-10.231 28.251h20.078z"/></svg>