<svg xmlns="http://www.w3.org/2000/svg" width="150" height="150" viewBox="-4.134 -34.34 150 150"><path d="M65.777 18.027c-21.699 2.521-38.544 20.961-38.544 43.334h87.264c.003-22.373-16.839-40.813-38.537-43.334l-.013-12.461h5.531a1.418 1.418 0 0 0 0-2.836H60.26c-.782 0-1.414.637-1.414 1.419 0 .783.632 1.417 1.414 1.417h5.46m58.497 65.472c0-4.171-3.381-7.558-7.553-7.558H25.066a7.556 7.556 0 0 0-7.552 7.558c0 4.172-7.865 7.552-3.694 7.552h114.091c4.175.002-3.694-3.38-3.694-7.552z" fill="#fefef6"/></svg>