<svg xmlns="http://www.w3.org/2000/svg" width="150" height="150" viewBox="0 0 150 150"><path d="M21 44.144h26.684c7.272 0 12.446 2.156 15.519 6.47 1.805 2.548 2.707 5.489 2.707 8.822 0 3.894-1.106 7.086-3.319 9.578-1.148 1.316-2.8 2.521-4.957 3.613 3.164 1.205 5.531 2.562 7.099 4.074 2.773 2.689 4.16 6.4 4.16 11.133 0 3.978-1.255 7.576-3.762 10.797-3.749 4.817-9.708 7.226-17.88 7.226H21V44.144zm23.559 26.087c3.566 0 6.339-.489 8.321-1.47 3.112-1.54 4.669-4.312 4.669-8.318 0-4.033-1.656-6.75-4.966-8.15-1.868-.784-4.642-1.176-8.321-1.176h-15.07v19.114h15.367zm2.826 28.483c5.174 0 8.863-1.483 11.068-4.452 1.384-1.876 2.077-4.145 2.077-6.806 0-4.481-2.021-7.533-6.063-9.157-2.15-.869-4.991-1.303-8.524-1.303H29.191v21.718h18.194zm33.011-54.57h8.443v25.5h31.718v-25.5H129v61.713h-8.443v-28.86H88.839v28.86h-8.443V44.144z"/></svg>