<svg xmlns="http://www.w3.org/2000/svg" width="150" height="150" viewBox="-4.134 -34.34 150 150"><path fill="#fefef6" d="M62.595 78.107c0-.562.447-1.014 1.008-1.014h14.524c.562 0 1.013.45 1.013 1.014 0 .561-.451 1.014-1.013 1.014H63.603a1.01 1.01 0 0 1-1.008-1.014m58.408-6.443H20.315V4.219h100.688v67.445zm20.021 6.939c0-1.5-1.213-2.717-2.707-2.717v-.192h-14.363a2.106 2.106 0 0 0 1.246-1.923V2.107A2.102 2.102 0 0 0 123.1 0H18.216a2.104 2.104 0 0 0-2.097 2.107V73.77c0 .854.513 1.595 1.245 1.923H3.414v.188C1.92 75.88.708 77.098.708 78.6s1.212 2.72 2.706 2.72h134.903a2.713 2.713 0 0 0 2.707-2.717"/></svg>