<svg xmlns="http://www.w3.org/2000/svg" width="150" height="150" viewBox="-4.134 -34.34 150 150"><path d="M66.909 23.063c-16.871 1.96-29.967 16.297-29.967 33.691h67.846c.002-17.395-13.092-31.731-29.961-33.691l-.012-9.688h4.301a1.103 1.103 0 0 0 0-2.206H62.62a1.103 1.103 0 0 0 0 2.206h4.245m45.479 50.903a5.875 5.875 0 0 0-5.871-5.876H35.257a5.875 5.875 0 0 0-5.871 5.876c0 3.243-6.115 5.871-2.872 5.871h88.704c3.246.002-2.874-2.628-2.874-5.871z"/><circle fill="none" stroke="#4C4C4C" stroke-width="10" stroke-miterlimit="10" cx="70.866" cy="40.66" r="62.875"/><path fill="none" stroke="#4C4C4C" stroke-width="10" stroke-miterlimit="10" d="M22.699.246l96.45 80.688"/></svg>