<svg xmlns="http://www.w3.org/2000/svg" width="150" height="150" viewBox="0 0 150 150"><path d="M128.588 85.306V31.718a1.98 1.98 0 0 0-.612-1.449 1.979 1.979 0 0 0-1.449-.612H23.474c-.559 0-1.041.204-1.449.612a1.98 1.98 0 0 0-.612 1.449v53.587c0 .559.204 1.041.612 1.451.408.406.891.611 1.449.611h103.053c.559 0 1.042-.205 1.449-.611.408-.409.612-.892.612-1.45zm8.244-53.588v70.076c0 2.836-1.01 5.26-3.027 7.279-2.019 2.016-4.444 3.027-7.278 3.027H91.488c0 1.588.344 3.252 1.03 4.99.688 1.738 1.375 3.264 2.062 4.574.687 1.309 1.03 2.242 1.03 2.801 0 1.117-.407 2.082-1.224 2.898s-1.781 1.223-2.898 1.223H58.512c-1.117 0-2.083-.406-2.898-1.223-.816-.816-1.224-1.781-1.224-2.898 0-.602.343-1.545 1.03-2.834.687-1.287 1.374-2.791 2.061-4.51.688-1.717 1.031-3.391 1.031-5.021H23.474c-2.834 0-5.261-1.012-7.278-3.027-2.018-2.02-3.027-4.443-3.027-7.279V31.718c0-2.833 1.01-5.26 3.027-7.278s4.444-3.027 7.278-3.027h103.053c2.834 0 5.26 1.009 7.278 3.027 2.017 2.018 3.027 4.445 3.027 7.278z"/></svg>