<svg xmlns="http://www.w3.org/2000/svg" width="150" height="150" viewBox="0 0 150 150"><path stroke="#000" stroke-width="3" stroke-miterlimit="10" d="M136.664 77.217c-.021-.135-.005-.27-.048-.403l-10.739-32.217a2.7 2.7 0 0 0-2.551-1.831H64.261c-.032 0-.064.016-.102.021l-8.618-9.848c-1.021-1.17-3.023-1.17-4.043 0l-11.4 13.026V40.08a2.686 2.686 0 0 0-2.685-2.685H26.674a2.686 2.686 0 0 0-2.685 2.685v24.163c0 .037.021.07.021.107l-10.1 11.545c-.108.123-.151.269-.231.402-.086.14-.177.264-.236.413-.081.21-.102.425-.129.645-.011.107-.064.199-.064.312v37.586a2.687 2.687 0 0 0 2.685 2.686h118.13a2.686 2.686 0 0 0 2.685-2.686V77.668c0-.162-.059-.295-.086-.451zm-15.27-29.082l8.95 26.848H92.333L68.841 48.135h52.553zm-92.035-5.37h5.37v8.054c0 .371.075.725.209 1.042l-5.579 6.379V42.765zm32.217 69.805H45.468v-8.055c0-4.441 3.613-8.055 8.054-8.055 4.441 0 8.055 3.613 8.055 8.055v8.055zm59.066 0H93.794v-5.369h26.848v5.369zm0-10.74H93.794v-5.369h26.848v5.369zm10.738 10.74h-5.369V93.775a2.686 2.686 0 0 0-2.685-2.684H91.109a2.687 2.687 0 0 0-2.686 2.684v18.795H66.946v-8.055c0-7.4-6.025-13.424-13.424-13.424-7.399 0-13.424 6.023-13.424 13.424v8.055H18.62V78.672l34.902-39.886L89.09 79.434c.017.021.043.027.064.049.204.22.446.386.714.525.06.033.107.092.172.119.328.145.688.225 1.069.225h40.271v32.218zM69.63 69.613H37.413a2.686 2.686 0 0 0-2.685 2.685v10.739a2.688 2.688 0 0 0 2.685 2.686H69.63a2.687 2.687 0 0 0 2.685-2.686V72.298a2.686 2.686 0 0 0-2.685-2.685zm-2.684 10.739H40.098v-5.369h26.848v5.369z"/></svg>