<svg xmlns="http://www.w3.org/2000/svg" width="12.817" height="14.29" viewBox="0 0 12.817 14.29"><path fill-rule="evenodd" clip-rule="evenodd" fill="#644D4C" d="M12.016 13.098c0 .165-.119.298-.266.298H1.068c-.146 0-.266-.133-.266-.298V2.528c0-.163.119-.296.266-.296h1.737v.895c0 .246.178.444.398.444.221 0 .401-.198.401-.444v-.895h2.404v.895c0 .246.18.444.401.444.221 0 .401-.198.401-.444v-.895h2.401v.895c0 .246.18.444.4.444.222 0 .401-.198.401-.444v-.895h1.737c.146 0 .266.133.266.296v10.57zm-.266-11.76h-1.737V.446C10.013.2 9.833 0 9.611 0c-.221 0-.4.2-.4.446v.892H6.81V.446C6.81.2 6.629 0 6.409 0c-.221 0-.401.2-.401.446v.892H3.604V.446C3.604.2 3.424 0 3.203 0c-.221 0-.398.2-.398.446v.892H1.068C.479 1.338 0 1.872 0 2.528v10.569c0 .658.479 1.192 1.068 1.192H11.75c.588 0 1.067-.534 1.067-1.192V2.528c0-.656-.479-1.19-1.067-1.19z"/><path d="M8.421 9.857h1.602v1.339H8.421zm-2.766 0h1.602v1.339H5.655zm-2.86 0h1.602v1.339H2.795zm5.626-2.271h1.602v1.338H8.421zm-2.766 0h1.602v1.338H5.655zm-2.86 0h1.602v1.338H2.795zm5.626-2.208h1.602v1.339H8.421zm-2.766 0h1.602v1.339H5.655zm-2.86 0h1.602v1.339H2.795z" fill-rule="evenodd" clip-rule="evenodd" fill="#654E4E"/></svg>