<svg xmlns="http://www.w3.org/2000/svg" width="21" height="22" viewBox="0 0 21 22"><path fill-rule="evenodd" clip-rule="evenodd" fill="#644D4C" d="M1.497 8.425c0-3.786 3.032-6.876 6.775-6.876 3.73 0 6.775 3.077 6.775 6.876s-3.032 6.876-6.775 6.876c-3.743 0-6.775-3.09-6.775-6.876zm12.839 5.698a8.453 8.453 0 0 0 2.207-5.698c0-4.621-3.705-8.395-8.271-8.395C3.706.03 0 3.804 0 8.425c0 4.622 3.706 8.396 8.272 8.396 1.859 0 3.568-.62 4.953-1.671l6.151 6.242a.737.737 0 0 0 .524.228.71.71 0 0 0 .523-.228.78.78 0 0 0 0-1.076l-6.087-6.193z"/></svg>