<svg xmlns="http://www.w3.org/2000/svg" width="44.323" height="44.323" viewBox="0 0 44.323 44.323"><circle fill-rule="evenodd" clip-rule="evenodd" fill="#FCD20D" cx="22.162" cy="22.161" r="22.161"/><path fill-rule="evenodd" clip-rule="evenodd" fill="#FFFFFA" d="M22.733 37.901c-.192 0-.383-.049-.55-.143a29.373 29.373 0 0 1-3.995-2.717 1.112 1.112 0 0 1 1.399-1.725c.995.803 2.05 1.539 3.145 2.191 3.797-2.268 7.068-5.512 9.256-9.195 1.923-3.236 2.867-6.647 2.465-8.901-.346-1.938-1.502-2.127-1.881-2.189-.428-.07-1.729-.283-3.236 1.877-1.068 1.53-1.619 3.383-1.719 3.738a1.112 1.112 0 0 1-2.16-.526c.401-1.914.725-5.592-.613-7.233-.484-.596-1.174-.885-2.11-.885-.938 0-1.629.289-2.113.885-1.337 1.642-1.014 5.319-.613 7.233a1.112 1.112 0 1 1-2.16.526c-.1-.355-.649-2.208-1.718-3.738-1.507-2.159-2.808-1.946-3.236-1.877-.706.116-1.209.483-1.539 1.125-.895 1.738-.386 5.055 1.297 8.448a1.108 1.108 0 0 1-.503 1.486 1.114 1.114 0 0 1-1.49-.502c-2.046-4.125-2.525-8.031-1.282-10.446.656-1.274 1.748-2.07 3.158-2.302 1.315-.215 3.206.023 4.993 2.228.167-1.308.566-2.595 1.368-3.58.908-1.115 2.234-1.705 3.837-1.705 1.605 0 2.932.59 3.839 1.705.803.984 1.201 2.272 1.369 3.58 1.787-2.204 3.678-2.442 4.992-2.228 1.964.322 3.316 1.776 3.712 3.991.499 2.796-.526 6.692-2.741 10.422-2.488 4.186-6.26 7.848-10.621 10.312a1.111 1.111 0 0 1-.55.145"/><path fill-rule="evenodd" clip-rule="evenodd" fill="#FFFFFA" d="M16.914 29.918c0 1.074-.884 1.957-1.961 1.957s-1.961-.883-1.961-1.957.884-1.957 1.961-1.957 1.961.883 1.961 1.957"/></svg>