<?xml version="1.0" encoding="utf-8"?>
<!-- Generator: Adobe Illustrator 16.0.0, SVG Export Plug-In . SVG Version: 6.00 Build 0)  -->
<!DOCTYPE svg PUBLIC "-//W3C//DTD SVG 1.1//EN" "http://www.w3.org/Graphics/SVG/1.1/DTD/svg11.dtd">
<svg version="1.1" id="Layer_1" xmlns="http://www.w3.org/2000/svg" xmlns:xlink="http://www.w3.org/1999/xlink" x="0px" y="0px"
	 width="56.296px" height="48.889px" viewBox="0 0 56.296 48.889" enable-background="new 0 0 56.296 48.889" xml:space="preserve">
<g>
	<g>
		<g id="HA">
			<g>
				<path fill="#4E4E4E" d="M23.259,21.426l-0.009-0.009l4.277-4.277l0.008,0.008c0.166-0.161,0.275-0.262,0.393-0.365
					c0.339-0.302,0.568-0.384,0.86-0.183c0.129,0.091,0.22,0.165,0.293,0.238c0.11,0.11,0.184,0.146,0.247,0.083
					c0.064-0.064,0.019-0.147-0.109-0.275c-0.357-0.357-0.961-0.906-1.181-1.126c-0.247-0.247-0.796-0.852-1.291-1.346
					c-0.128-0.128-0.21-0.173-0.275-0.109c-0.063,0.063-0.027,0.137,0.073,0.238c0.128,0.128,0.275,0.292,0.33,0.385
					c0.238,0.365,0.165,0.585-0.128,0.915c-0.274,0.312-0.531,0.567-1.922,1.959l-1.611,1.611c-0.842,0.843-1.565,1.565-1.996,1.905
					c-0.302,0.229-0.549,0.384-0.769,0.238c-0.101-0.064-0.229-0.156-0.366-0.293c-0.11-0.11-0.174-0.119-0.22-0.073
					c-0.064,0.064-0.028,0.156,0.091,0.274c0.366,0.367,0.971,0.916,1.181,1.126c0.256,0.256,0.806,0.861,1.4,1.456
					c0.11,0.11,0.211,0.156,0.275,0.091c0.045-0.045,0.028-0.119-0.073-0.22c-0.137-0.137-0.321-0.356-0.43-0.503
					c-0.238-0.311-0.091-0.568,0.138-0.851C22.626,22.093,22.912,21.785,23.259,21.426z M37.054,24.665
					c0.119-0.302,0.147-0.44,0.065-0.521c-0.093-0.092-0.248-0.046-0.623,0.11l-8.047,3.451c-0.565,0.242-1.009,0.356-1.434,0.132
					c-0.15-0.271-0.025-0.507,0.181-0.764c0.348-0.439,1.071-1.162,1.914-2.005l1.61-1.611c1.392-1.392,1.648-1.647,1.959-1.922
					c0.339-0.302,0.567-0.384,0.86-0.183c0.128,0.091,0.22,0.165,0.293,0.238c0.11,0.11,0.184,0.146,0.247,0.083
					c0.064-0.064,0.019-0.147-0.109-0.275c-0.357-0.357-0.962-0.906-1.181-1.126c-0.248-0.247-0.797-0.852-1.291-1.346
					c-0.128-0.128-0.211-0.173-0.274-0.109c-0.064,0.063-0.028,0.137,0.072,0.238c0.129,0.128,0.275,0.292,0.33,0.384
					c0.238,0.366,0.165,0.585-0.128,0.915c-0.274,0.311-0.53,0.567-1.922,1.959l-0.193,0.192c-0.029,0.029-0.056,0.032-0.081,0.026
					l-0.515,0.515c0.007,0.024,0.006,0.049-0.018,0.073l-0.805,0.805c-0.842,0.842-1.565,1.565-1.996,1.904
					c-0.302,0.229-0.549,0.384-0.769,0.238c-0.101-0.064-0.229-0.156-0.366-0.293c-0.11-0.11-0.174-0.119-0.22-0.073
					c-0.064,0.064-0.027,0.156,0.101,0.284c0.357,0.357,0.961,0.906,1.172,1.117c0.104,0.104,0.266,0.275,0.451,0.471
					c0.017,0.041,0.051,0.086,0.107,0.143c0.127,0.127,0.256,0.252,0.382,0.372c0.147,0.153,0.302,0.312,0.46,0.471
					c0.057,0.057,0.11,0.093,0.159,0.109c0.043,0.039,0.088,0.082,0.106,0.1c0.284,0.284,0.65,0.705,0.942,0.998
					c0.101,0.101,0.174,0.137,0.247,0.063c0.055-0.055,0.046-0.1-0.063-0.21l-0.137-0.137c-0.284-0.284-0.248-0.486-0.083-0.65
					c0.11-0.11,0.376-0.283,0.696-0.42l0.11-0.05l-0.008-0.009l5.276-2.424l0.033,0.033l0.311-0.142
					c0.046-0.027,0.109-0.055,0.137-0.027c0.028,0.028-0.009,0.083-0.036,0.128l-0.703,1.509l-1.881,4.203l-0.025-0.027l-0.394,0.87
					c-0.063,0.155-0.21,0.173-0.293,0.128c-0.101-0.082-0.155-0.101-0.21-0.046c-0.064,0.064,0.046,0.174,0.201,0.348
					c0.714,0.751,1.382,1.419,1.712,1.749c0.338,0.338,0.439,0.402,0.513,0.329c0.064-0.064,0.027-0.118-0.046-0.192
					c-0.11-0.11-0.238-0.256-0.349-0.422c-0.146-0.237-0.283-0.631,0.193-1.803C34.501,30.587,36.771,25.388,37.054,24.665z"/>
			</g>
		</g>
		<g id="Shape_5">
			<g>
				<path fill="#FFFFFF" d="M37.269,29.449c-1.181,0.3-3.31,0.011-5.886-4.112c-3.967-6.347-7.834-5.057-7.834-5.057
					c3.421,0.347,6,5.207,6.297,6c0.297,0.793,1.438,2.033,1.438,2.033c2.172,2.171,4.643,1.673,5.987,1.142L37.269,29.449z"/>
			</g>
		</g>
		<g id="Shape_5_copy">
			<g>
				<path fill="#B92025" d="M36.874,29.449c-1.183,0.3-3.311,0.01-5.887-4.111c-3.967-6.348-7.834-5.058-7.834-5.058
					c3.421,0.347,6,5.207,6.296,5.999c0.297,0.794,1.438,2.034,1.438,2.034c2.172,2.171,4.643,1.672,5.988,1.141L36.874,29.449z"/>
			</g>
		</g>
		<g id="Shape_4">
			<g>
				<path fill-rule="evenodd" clip-rule="evenodd" fill="#4E4E4E" d="M38.526,15.985c-4.8-4.8-12.583-4.8-17.383,0
					c-4.8,4.801-4.8,12.583,0,17.383c4.8,4.8,12.583,4.801,17.384,0C43.327,28.568,43.326,20.785,38.526,15.985z M37.996,32.813
					c-4.493,4.493-11.778,4.493-16.271,0c-4.494-4.494-4.494-11.779,0-16.272c4.493-4.493,11.779-4.494,16.272,0
					C42.49,21.034,42.49,28.32,37.996,32.813z"/>
			</g>
		</g>
	</g>
	<circle fill-rule="evenodd" clip-rule="evenodd" fill="none" cx="29.835" cy="24.675" r="12.513"/>
	<text transform="matrix(0.9731 -0.2305 0.2305 0.9731 25.021 12.9556)"><tspan x="0" y="0" fill="#4E4E4E" font-family="'SourceSansPro-Regular'" font-size="6.9842">C</tspan><tspan x="3.694" y="-0.022" fill="#4E4E4E" font-family="'SourceSansPro-Regular'" font-size="6.9842" rotate="16.157">E</tspan><tspan x="6.937" y="0.845" fill="#4E4E4E" font-family="'SourceSansPro-Regular'" font-size="6.9842" rotate="32.24">R</tspan><tspan x="10.133" y="2.834" fill="#4E4E4E" font-family="'SourceSansPro-Regular'" font-size="6.9842" rotate="48.568">T</tspan><tspan x="12.393" y="5.506" fill="#4E4E4E" font-family="'SourceSansPro-Regular'" font-size="6.9842" rotate="60.301">I</tspan><tspan x="13.283" y="6.868" fill="#4E4E4E" font-family="'SourceSansPro-Regular'" font-size="6.9842" rotate="71.345">F</tspan><tspan x="14.259" y="9.929" fill="#4E4E4E" font-family="'SourceSansPro-Regular'" font-size="6.9842" rotate="82.289">I</tspan><tspan x="14.591" y="11.519" fill="#4E4E4E" font-family="'SourceSansPro-Regular'" font-size="6.9842" rotate="93.799">E</tspan><tspan x="14.46" y="14.879" fill="#4E4E4E" font-family="'SourceSansPro-Regular'" font-size="6.9842" rotate="110.518">D</tspan><tspan x="12.925" y="18.624" fill="#4E4E4E" font-family="'SourceSansPro-Regular'" font-size="6.9842" rotate="122.428"> </tspan><tspan x="12.412" y="19.726" fill="#4E4E4E" font-family="'SourceSansPro-Regular'" font-size="6.9842" rotate="133.909">B</tspan><tspan x="9.757" y="22.463" fill="#4E4E4E" font-family="'SourceSansPro-Regular'" font-size="6.9842" rotate="149.594">Y</tspan><tspan x="7.044" y="23.981" fill="#4E4E4E" font-family="'SourceSansPro-Regular'" font-size="6.9842" rotate="159.455"> </tspan><tspan x="6.022" y="24.574" fill="#4E4E4E" font-family="'SourceSansPro-Regular'" font-size="6.9842" rotate="171.771">H</tspan><tspan x="1.858" y="25.241" fill="#4E4E4E" font-family="'SourceSansPro-Regular'" font-size="6.9842" rotate="-168.965">O</tspan><tspan x="-2.349" y="24.526" fill="#4E4E4E" font-family="'SourceSansPro-Regular'" font-size="6.9842" rotate="-148.665">M</tspan><tspan x="-6.352" y="22.03" fill="#4E4E4E" font-family="'SourceSansPro-Regular'" font-size="6.9842" rotate="-130.441">E</tspan><tspan x="-8.59" y="19.474" fill="#4E4E4E" font-family="'SourceSansPro-Regular'" font-size="6.9842" rotate="-114.678">A</tspan><tspan x="-10.1" y="16.345" fill="#4E4E4E" font-family="'SourceSansPro-Regular'" font-size="6.9842" rotate="-98.405">R</tspan><tspan x="-10.744" y="12.661" fill="#4E4E4E" font-family="'SourceSansPro-Regular'" font-size="6.9842" rotate="-80.2">O</tspan><tspan x="-10.062" y="8.433" fill="#4E4E4E" font-family="'SourceSansPro-Regular'" font-size="6.9842" rotate="-61.018">U</tspan><tspan x="-8.096" y="4.76" fill="#4E4E4E" font-family="'SourceSansPro-Regular'" font-size="6.9842" rotate="-42.232">N</tspan><tspan x="-5.046" y="1.938" fill="#4E4E4E" font-family="'SourceSansPro-Regular'" font-size="6.9842" rotate="-23.811">D</tspan></text>
</g>
</svg>
