<svg xmlns="http://www.w3.org/2000/svg" width="143.513" height="143.513" viewBox="0 0 143.513 143.513"><path fill="#F4F4F4" d="M39.628 95.465c-1.117 0-2.757-.149-3.8-.299-2.235-.298-2.683-1.937-2.906-4.023-.194-1.669-.286-4.07-.331-6.953h-.071V49.37h.066c.021-1.326.056-2.184.112-3.083.149-2.608.745-3.875 2.758-4.248.894-.148 1.564-.223 2.16-.223.895 0 1.341-.149 1.341-.671s-.521-.671-1.564-.671c-2.905 0-7.601.224-9.389.224-2.012 0-6.706-.224-10.729-.224-1.043 0-1.564.149-1.564.671s.447.671 1.267.671c1.043 0 2.31.074 2.906.223 2.458.522 3.055 1.714 3.204 4.248.148 2.384.148 4.471.148 15.796v13.114c0 6.855 0 12.741-.373 15.871-.297 2.161-.67 3.8-2.16 4.098-.67.149-1.564.299-2.683.299-.895 0-1.192.224-1.192.596 0 .521.521.745 1.49.745 2.98 0 7.675-.224 9.389-.224 2.086 0 6.781.224 11.624.224.895 0 1.49-.224 1.49-.745-.001-.373-.374-.596-1.193-.596zm90.458 0c-.895 0-2.012-.075-3.13-.299-1.564-.372-3.726-1.415-6.557-8.121-4.77-11.326-16.691-41.727-18.479-45.825-.745-1.714-1.192-2.385-1.862-2.385-.746 0-1.192.82-2.087 2.981L79.269 88.609c-1.314 3.286-2.575 5.64-5.205 6.457-1.843-.451-2.262-1.987-2.47-3.924-.372-3.204-.372-9.09-.372-15.945V62.083c0-11.325 0-13.412.148-15.796.149-2.608.745-3.875 2.757-4.248.895-.148 1.565-.223 2.161-.223.895 0 1.341-.149 1.341-.671s-.521-.671-1.564-.671c-2.906 0-7.6.224-9.389.224-2.012 0-6.706-.224-10.729-.224-1.043 0-1.564.149-1.564.671s.447.671 1.267.671c1.043 0 2.31.074 2.905.223 2.459.522 3.056 1.714 3.205 4.248.148 2.384.148 4.471.148 15.796v1.564c0 .243-.099.383-.227.457v4.149a.415.415 0 0 1 .227.386v6.558c0 6.855 0 12.741-.372 15.871-.299 2.161-.671 3.8-2.161 4.098-.671.149-1.564.299-2.683.299-.894 0-1.192.224-1.192.596 0 .521.521.745 1.564.745 2.906 0 7.601-.224 9.314-.224.857 0 2.16.038 3.728.082.233.104.573.142 1.041.142 1.03 0 2.075-.016 3.071-.039 1.221.023 2.496.039 3.784.039.471 0 .851-.066 1.112-.201.381-.014.666-.022.825-.022 2.31 0 5.514.224 7.897.224.82 0 1.267-.149 1.267-.745 0-.447-.223-.596-1.117-.596h-1.118c-2.31 0-2.98-.969-2.98-2.311 0-.894.373-2.682 1.118-4.545l.244-.646-.065-.002 11.606-31.338h.267l.689-1.843c.075-.298.224-.671.447-.671s.298.373.373.671l3.306 9.074 9.426 24.687-.216-.005 1.939 5.139c.372.895-.149 1.565-.671 1.714-.745.075-1.043.224-1.043.671 0 .521.894.521 2.235.596 5.961.149 11.4.149 14.083.149 2.757 0 3.427-.149 3.427-.745.001-.522-.371-.596-.967-.596z"/><path fill="#B92025" d="M79.959 68.656c-41.976-9.688-52.47 11.301-52.47 11.301 15.337-12.512 45.608-3.229 50.048-1.211 4.44 2.019 14.127 2.422 14.127 2.422 17.653 0 25.689-12.062 29.011-19.701-3.613 6.022-13.527 13.464-40.716 7.189zm40.725-7.21l-.009.021.012-.02-.003-.001z"/><path fill-rule="evenodd" clip-rule="evenodd" fill="#F4F4F4" d="M71.757 0C32.127 0 0 32.126 0 71.756s32.127 71.757 71.757 71.757 71.756-32.127 71.756-71.757S111.387 0 71.757 0zm.106 138.821c-37.098 0-67.172-30.074-67.172-67.172S34.766 4.478 71.863 4.478s67.172 30.074 67.172 67.172-30.074 67.171-67.172 67.171z"/></svg>