<svg xmlns="http://www.w3.org/2000/svg" width="299" height="47.58" viewBox="0 0 299 47.58"><path fill="#BA1010" d="M85.981 27.008a12.4 12.4 0 0 1-1.49-.117c-.876-.117-1.051-.76-1.139-1.578-.146-1.256-.146-3.563-.146-6.25v-5.14c0-4.439 0-5.257.058-6.192.058-1.022.292-1.519 1.081-1.665a5.23 5.23 0 0 1 .847-.087c.35 0 .525-.059.525-.263 0-.205-.205-.263-.613-.263-1.139 0-2.979.088-3.68.088-.789 0-2.628-.088-4.206-.088-.409 0-.613.059-.613.263 0 .204.175.263.496.263.409 0 .905.029 1.139.087.964.205 1.198.672 1.256 1.665.058.935.058 1.752.058 6.192v.613c0 .146-.087.205-.175.205H68.224c-.088 0-.175-.059-.175-.205v-.613c0-4.439 0-5.257.058-6.192.059-1.022.292-1.519 1.081-1.665a5.23 5.23 0 0 1 .847-.087c.351 0 .526-.059.526-.263 0-.205-.205-.263-.613-.263-1.139 0-2.979.088-3.68.088-.789 0-2.629-.088-4.206-.088-.409 0-.614.059-.614.263 0 .204.175.263.497.263.409 0 .905.029 1.139.087.964.205 1.197.672 1.256 1.665.059.935.059 1.752.059 6.192v5.14c0 2.687 0 4.994-.146 6.221-.117.847-.263 1.49-.847 1.606a4.787 4.787 0 0 1-1.051.117c-.351 0-.467.087-.467.234 0 .204.204.292.584.292 1.168 0 3.008-.088 3.68-.088.817 0 2.658.088 4.556.088.35 0 .584-.088.584-.292 0-.146-.146-.234-.467-.234a12.4 12.4 0 0 1-1.49-.117c-.876-.117-1.051-.76-1.139-1.578-.146-1.256-.146-3.563-.146-6.25v-2.57c0-.146.087-.175.175-.175h11.157c.087 0 .175.058.175.175v2.57c0 2.687 0 4.994-.146 6.221-.117.847-.263 1.49-.847 1.606a4.787 4.787 0 0 1-1.051.117c-.351 0-.467.087-.467.234 0 .204.204.292.613.292 1.139 0 2.979-.088 3.65-.088.818 0 2.658.088 4.557.088.351 0 .584-.088.584-.292-.001-.144-.147-.232-.469-.232zm14.193-18.605c-7.798 0-10.777 5.491-10.777 9.726 0 4.41 3.037 9.726 10.514 9.726 6.63 0 10.777-4.469 10.777-10.164 0-5.695-4.03-9.288-10.514-9.288zm.788 18.109c-4.849 0-7.769-4.03-7.769-9.142 0-6.133 3.358-7.652 6.221-7.652 4.147 0 7.447 3.388 7.447 8.879.001 7.068-4.088 7.915-5.899 7.915zm37.734.496c-.322 0-.73-.029-1.46-.233-.789-.234-1.022-.906-1.256-2.454l-2.336-15.333c-.087-.525-.38-.789-.584-.789-.233 0-.467.204-.672.613l-6.893 14.019-6.893-13.844c-.35-.672-.525-.789-.789-.789-.204 0-.438.233-.496.643l-2.542 16.21c-.116.817-.35 1.811-1.051 1.898-.409.059-.584.059-.788.059-.263 0-.409.117-.409.234 0 .233.204.292.467.292.818 0 2.044-.088 2.541-.088.467 0 1.635.088 2.716.088.38 0 .613-.059.613-.292 0-.117-.175-.234-.409-.234-.233 0-.467-.029-.905-.117-.438-.088-.789-.263-.789-.73 0-.409.029-.73.087-1.168l1.227-9.697h.087c.847 1.724 2.366 4.849 2.57 5.316.292.701 2.337 4.498 2.95 5.637.409.759.701 1.256 1.022 1.256.292 0 .438-.234 1.022-1.402l5.521-11.099h.087l1.431 10.748c.087.701.029.993-.117 1.051-.175.059-.292.146-.292.263 0 .146.146.263.759.292 1.022.058 4.673.175 5.316.175.379 0 .672-.088.672-.292.001-.145-.174-.233-.407-.233zm15.361-3.388c-.176 0-.234.117-.292.38-.176 1.022-.468 1.548-1.11 1.84-.672.292-1.753.322-2.424.322-2.629 0-3.418-.38-3.477-2.074-.029-.73 0-2.833 0-3.68v-1.986c0-.146.03-.263.146-.263.643 0 3.563.059 4.03.117.964.088 1.285.467 1.431.964.06.321.06.643.089.906 0 .117.058.204.234.204.232 0 .262-.35.262-.555 0-.175.059-1.168.116-1.665.146-1.256.205-1.665.205-1.811s-.088-.263-.205-.263c-.116 0-.204.146-.408.321-.233.263-.613.321-1.227.38-.585.058-3.914.058-4.498.058-.146 0-.176-.117-.176-.262v-6.134c0-.146.059-.234.176-.234.525 0 3.593.059 4.03.117 1.285.117 1.49.467 1.694.905.146.292.175.73.175.905 0 .205.029.321.205.321.203 0 .263-.292.292-.409.059-.292.116-1.373.146-1.636.059-1.139.205-1.431.205-1.606 0-.117-.029-.234-.176-.234-.116 0-.264.088-.409.117-.204.029-.612.117-1.08.146-.496.029-6.192 0-7.009 0-.73 0-2.366-.058-3.71-.058-.38 0-.584.058-.584.233s.175.263.438.263c.38 0 .817.029 1.022.088.817.233 1.052.497 1.109 1.343.029.789.029 1.49.029 5.257v4.381c0 2.278 0 4.235-.116 5.287-.088.73-.233 1.197-.76 1.314a3.8 3.8 0 0 1-.905.087c-.321 0-.409.146-.409.263 0 .175.175.263.497.263.525 0 1.168-.029 1.781-.059.613 0 1.169-.029 1.461-.029.759 0 1.723.029 2.979.059 1.256.058 2.804.087 4.731.087.964 0 1.198 0 1.373-.643.146-.496.351-2.19.351-2.745.001-.26-.028-.582-.232-.582zm32.416 3.388a6.39 6.39 0 0 1-1.227-.117c-.612-.146-1.46-.555-2.569-3.184-1.87-4.439-6.543-16.356-7.244-17.962-.292-.671-.467-.935-.729-.935-.292 0-.468.321-.818 1.168l-7.33 18.342c-.585 1.46-1.14 2.454-2.483 2.628a8.877 8.877 0 0 1-.905.059c-.233 0-.351.059-.351.234 0 .233.176.292.555.292 1.52 0 3.125-.088 3.447-.088.905 0 2.161.088 3.096.088.321 0 .496-.059.496-.292 0-.175-.088-.234-.438-.234h-.438c-.905 0-1.168-.379-1.168-.905 0-.351.146-1.051.438-1.782l1.577-4.176c.059-.175.117-.234.264-.234h6.513c.146 0 .233.059.292.204l2.337 6.192c.146.35-.059.613-.264.671-.291.029-.408.088-.408.263 0 .204.35.204.876.233 2.336.059 4.469.059 5.52.059 1.081 0 1.344-.059 1.344-.292-.003-.202-.149-.232-.383-.232zm-9.871-8.557h-5.374c-.117 0-.146-.087-.117-.204l2.688-7.185c.028-.117.087-.263.175-.263s.117.146.146.263l2.629 7.214c.027.087-.002.175-.147.175zm30.343 8.557c-.204 0-.351 0-.613-.059-.409-.087-1.314-.204-2.745-1.636-1.548-1.548-3.359-3.797-5.638-6.6 2.513-2.016 3.564-3.651 3.564-5.491 0-1.665-1.081-2.92-1.812-3.417-1.372-.905-3.242-1.051-4.878-1.051-.788 0-3.124.058-4.001.058-.525 0-2.161-.058-3.505-.058-.38 0-.584.058-.584.233s.176.263.438.263c.379 0 .817.029 1.021.088.818.233 1.052.497 1.11 1.343.029.789.029 1.49.029 5.257v4.381c0 2.278 0 4.235-.117 5.287-.087.73-.233 1.197-.76 1.314a3.8 3.8 0 0 1-.905.087c-.32 0-.409.146-.409.263 0 .175.176.263.497.263 1.022 0 2.658-.088 3.154-.088.38 0 2.512.088 4.002.088.321 0 .525-.088.525-.263 0-.117-.117-.263-.321-.263a9.82 9.82 0 0 1-1.256-.087c-.789-.117-.905-.584-.993-1.314-.116-1.051-.146-2.979-.146-5.287v-.35c0-.146.087-.205.204-.205l2.308.059c.175 0 .321.029.467.175.321.379 1.402 2.044 2.425 3.388 1.431 1.927 2.395 3.096 3.505 3.651.671.351 1.372.497 2.804.497h2.453c.321 0 .496-.059.496-.263.003-.117-.115-.263-.319-.263zm-10.34-8.879c-.438.321-.788.409-1.81.409-.644 0-1.402-.058-1.957-.233-.176-.088-.233-.175-.233-.438v-7.39c0-.204.058-.292.233-.351.263-.058.876-.087 1.519-.087 1.519 0 3.913.905 3.913 4.41.001 2.045-.874 3.126-1.665 3.68zm20.737-9.726c-7.799 0-10.777 5.491-10.777 9.726 0 4.41 3.037 9.726 10.514 9.726 6.63 0 10.777-4.469 10.777-10.164-.001-5.695-4.031-9.288-10.514-9.288zm.788 18.109c-4.849 0-7.77-4.03-7.77-9.142 0-6.133 3.359-7.652 6.222-7.652 4.147 0 7.447 3.388 7.447 8.879 0 7.068-4.089 7.915-5.899 7.915zm32.038-17.758c-.993 0-2.716.058-3.008.058-.029 0-1.753-.058-3.067-.058-.351 0-.525.058-.525.233s.146.263.438.263c.292 0 .729.029.935.088.817.233 1.021.497 1.08 1.343.029.789.059 1.49.059 5.257v3.125c0 2.541-.059 4.702-1.49 6.046-1.021.993-2.336 1.314-3.446 1.314-.876 0-2.103-.087-3.241-.993-1.256-.993-1.957-2.395-1.957-6.017v-3.476c0-3.768 0-4.469.059-5.257.058-.876.263-1.227.935-1.343.321-.059.467-.088.759-.088.264 0 .409-.087.409-.263s-.175-.233-.555-.233c-.935 0-2.658.058-3.301.058-.76 0-2.482-.058-3.854-.058-.38 0-.555.058-.555.233s.146.263.438.263c.351 0 .788.029.993.088.817.233 1.052.467 1.109 1.343.059.789.029 1.49.029 5.257v3.651c0 3.592 1.022 5.433 2.337 6.572 1.869 1.635 4.527 1.694 5.87 1.694 1.665 0 3.622-.263 5.433-1.782 2.161-1.782 2.454-4.702 2.454-7.477v-2.658c0-3.768.028-4.469.058-5.257.059-.876.234-1.227.935-1.343.321-.059.468-.088.759-.088.293 0 .438-.087.438-.263s-.177-.232-.528-.232zm23.802 0c-1.256 0-2.22.058-2.512.058-.556 0-1.928-.058-3.271-.058-.379 0-.643.029-.643.233 0 .146.088.263.409.263.351 0 .964 0 1.344.146.613.234.847.672.876 2.19l.263 11.041h-.116c-.38-.351-3.798-3.855-5.55-5.579-3.738-3.651-7.594-7.594-7.915-7.915-.438-.438-.789-.818-1.109-.818-.264 0-.438.351-.438.847l-.233 14.72c-.029 2.161-.117 2.833-.789 3.008-.351.087-.817.117-1.168.117-.234 0-.409.117-.409.263 0 .234.234.263.584.263 1.314 0 2.541-.088 2.774-.088.468 0 1.666.088 3.33.088.351 0 .584-.059.584-.263 0-.146-.146-.263-.438-.263-.409 0-.905-.029-1.344-.176-.496-.175-.817-.759-.877-2.687l-.291-10.135h.087c.497.438 3.213 3.446 6.018 6.134 2.687 2.599 5.898 5.666 7.506 7.155.262.263.613.526 1.051.526.205 0 .409-.234.409-.789l.292-15.655c.029-1.401.233-1.839.935-2.044.321-.088.525-.088.788-.088.292 0 .438-.117.438-.263-.001-.202-.235-.231-.585-.231zm22.516 2.833c-2.804-2.833-7.127-2.833-10.34-2.833-1.548 0-3.388.058-4.177.058-.729 0-2.365-.058-3.709-.058-.38 0-.584.058-.584.233s.176.263.438.263c.38 0 .817.029 1.022.088.817.233 1.051.497 1.109 1.343.029.789.029 1.49.029 5.257v4.381c0 2.278 0 4.235-.117 5.287-.087.73-.233 1.197-.759 1.314a3.805 3.805 0 0 1-.905.087c-.322 0-.409.146-.409.263 0 .175.175.263.496.263.526 0 1.168-.029 1.782-.059.613 0 1.168-.029 1.46-.029.643 0 1.577.059 2.6.146 1.021.059 2.132.146 3.066.146 4.731 0 7.448-1.752 8.616-2.92 1.46-1.431 2.804-3.797 2.804-6.922.002-2.949-1.137-5.022-2.422-6.308zm-3.446 13.172c-1.548 1.285-3.271 1.694-5.608 1.694-2.015 0-3.037-.526-3.358-.994-.204-.262-.263-1.139-.292-1.752-.029-.497-.059-2.395-.059-5.023v-3.125c0-1.957 0-4.001.029-4.848 0-.292.088-.409.321-.497.205-.117 1.052-.175 1.577-.175 2.016 0 4.819.263 7.185 2.366 1.14.993 2.395 3.038 2.395 6.192-.001 2.57-.526 4.79-2.19 6.162z"/><path fill="#4B4B4B" d="M67.784 39.866c-.071 0-.094.059-.106.153a1.632 1.632 0 0 1-.307.707c-.282.342-.801.354-1.425.354-.919 0-1.225-.083-1.414-.271-.211-.212-.259-.966-.259-2.698v-2.097c0-1.838 0-2.168.023-2.544.024-.413.118-.613.459-.672.142-.024.306-.035.389-.035.047 0 .095-.024.095-.071 0-.071-.059-.095-.189-.095-.354 0-1.213.036-1.272.036-.059 0-.801-.036-1.331-.036-.13 0-.188.024-.188.095 0 .046.047.071.094.071.106 0 .307.011.401.035.389.082.483.271.507.672.023.376.023.707.023 2.544v2.073c0 1.131 0 2.062-.059 2.557-.047.342-.106.601-.342.648a1.772 1.772 0 0 1-.353.047c-.071 0-.094.035-.094.071 0 .071.059.094.188.094.176 0 .436-.012.671-.023.235 0 .436-.012.483-.012.342 0 .707.012 1.202.036.495.012 1.107.035 1.956.035.625 0 .66-.047.742-.318a7.548 7.548 0 0 0 .176-1.178c0-.131-.011-.178-.07-.178zm8.42-5.938c-.306 0-.801.023-.872.023-.059 0-.66-.023-1.12-.023-.118 0-.165.023-.165.083 0 .036.035.083.082.083.094 0 .271.012.354.023.341.047.4.236.412.554.012.318.024.601.024 2.156v1.26c0 1.025-.106 1.85-.589 2.427-.354.424-.966.707-1.603.707-.589 0-1.037-.083-1.543-.542-.448-.4-.766-1.001-.766-2.451v-1.401c0-1.556 0-1.838.023-2.156.024-.331.083-.507.354-.554.129-.023.188-.023.259-.023.047 0 .094-.047.094-.083 0-.059-.059-.083-.177-.083-.306 0-.954.023-1.049.023-.094 0-.718-.023-1.19-.023-.118 0-.165.023-.165.083 0 .036.047.083.083.083.094 0 .271.012.354.023.342.047.4.236.424.554.023.318.023.601.023 2.156v1.472c0 1.461.4 2.156.907 2.627.73.683 1.815.707 2.156.707.612 0 1.414-.083 2.168-.73.825-.708.966-1.921.966-3.005v-1.071c0-1.556-.012-1.838.012-2.156.024-.331.083-.495.365-.554.13-.023.188-.023.259-.023.047 0 .083-.047.083-.083.002-.059-.045-.083-.163-.083zm7.347 7.352c-.306-.083-.424-.224-.589-.436-.224-.271-1.991-3.182-2.192-3.487l1.662-2.427c.294-.436.483-.695.777-.79.118-.035.271-.047.354-.047a.103.103 0 0 0 .106-.094c0-.047-.047-.071-.165-.071-.354 0-.778.023-.872.023s-.53-.023-.919-.023c-.13 0-.177.023-.177.071s.035.094.094.094.177 0 .283.023c.106.036.177.094.177.165a.635.635 0 0 1-.106.354c-.094.212-1.19 1.897-1.497 2.333-.542-.86-.93-1.579-1.366-2.369a.77.77 0 0 1-.106-.33c0-.071.035-.142.13-.153.083-.023.212-.023.283-.023.059 0 .094-.047.094-.094s-.036-.071-.177-.071c-.353 0-.919.023-1.013.023-.083 0-.919-.023-1.214-.023-.129 0-.176.023-.176.071 0 .036.035.094.094.094s.271.023.436.071c.354.106.554.389.79.777l1.649 2.687-1.861 2.875c-.33.506-.542.695-.849.778a2.106 2.106 0 0 1-.388.059c-.059 0-.083.047-.083.095 0 .035.012.07.094.07.342 0 .86-.036.943-.036.094 0 .777.036 1.025.036.07 0 .129-.023.129-.07a.093.093 0 0 0-.094-.095c-.047 0-.129-.012-.188-.023-.095-.024-.165-.071-.165-.166 0-.105.035-.282.129-.447l1.59-2.627a116.85 116.85 0 0 1 1.755 2.958c.095.165 0 .271-.059.283a.088.088 0 0 0-.059.083c0 .047.047.07.318.083.565.023 1.06.023 1.696.023.095 0 .142-.036.142-.082 0-.048-.023-.083-.083-.083s-.211-.027-.352-.062zm8.468-7.352c-.307 0-.802.023-.872.023-.059 0-.66-.023-1.12-.023-.118 0-.165.023-.165.083 0 .036.035.083.083.083.094 0 .271.012.354.023.341.047.4.236.412.554.012.318.023.601.023 2.156v1.26c0 1.025-.106 1.85-.589 2.427-.354.424-.966.707-1.602.707-.589 0-1.037-.083-1.543-.542-.448-.4-.766-1.001-.766-2.451v-1.401c0-1.556 0-1.838.024-2.156.023-.331.082-.507.353-.554.13-.023.189-.023.259-.023.047 0 .094-.047.094-.083 0-.059-.059-.083-.177-.083-.306 0-.954.023-1.048.023s-.719-.023-1.19-.023c-.118 0-.166.023-.166.083 0 .036.048.083.083.083.095 0 .271.012.354.023.341.047.4.236.424.554.023.318.023.601.023 2.156v1.472c0 1.461.401 2.156.908 2.627.73.683 1.814.707 2.156.707.612 0 1.413-.083 2.167-.73.825-.708.966-1.921.966-3.005v-1.071c0-1.556-.012-1.838.012-2.156.023-.331.082-.495.365-.554.129-.023.188-.023.259-.023.047 0 .082-.047.082-.083.001-.059-.046-.083-.163-.083zm9.267 7.411c-.059 0-.165 0-.365-.036-.259-.035-.601-.129-1.155-.695-.601-.625-1.319-1.531-2.167-2.592.966-.824 1.272-1.543 1.272-2.286 0-.695-.459-1.178-.718-1.367-.542-.376-1.272-.436-1.932-.436-.318 0-1.19.023-1.296.023-.059 0-.754-.023-1.225-.023-.118 0-.165.023-.165.083 0 .036.047.083.083.083.094 0 .271.012.354.023.342.047.4.212.424.554.023.318.023.601.023 2.156v1.767c0 .966 0 1.755-.059 2.168-.047.294-.071.483-.271.53a1.455 1.455 0 0 1-.318.047c-.059 0-.083.047-.083.083 0 .059.059.082.165.082.318 0 1.013-.036 1.025-.036.047 0 .707.036 1.272.036.118 0 .165-.036.165-.082 0-.036-.011-.083-.083-.083-.094 0-.318-.023-.459-.047-.318-.047-.377-.235-.413-.53-.047-.413-.047-1.19-.047-2.156v-.235c0-.059.023-.083.07-.083l1.32.023c.07 0 .095.012.142.059.224.271.683.918 1.119 1.461.589.754.966 1.237 1.414 1.472.259.142.518.201 1.107.201h.648c.188 0 .248-.023.248-.082-.001-.035-.036-.082-.095-.082zm-3.982-3.558c-.248.165-.531.176-.778.176-.459 0-.989-.071-1.143-.153-.047-.036-.07-.071-.07-.13v-3.216c0-.059.035-.095.083-.118.106-.023.436-.059.742-.059 1.107 0 1.791.719 1.791 1.967-.001.767-.272 1.297-.625 1.533zm10.292-3.853c-.2 0-.942.023-1.013.023-.083 0-.448-.023-.719-.023-.106 0-.165.023-.165.059 0 .047.059.094.153.118.118.035.165.118.165.259 0 .13-.047.295-.177.519-.188.33-1.484 2.475-1.697 2.899l-1.885-3.123c-.071-.129-.142-.248-.142-.389 0-.082.047-.13.129-.165.095-.035.165-.07.165-.106 0-.047-.023-.071-.141-.071-.401 0-.825.023-.896.023-.047 0-.824-.023-1.025-.023-.094 0-.129.023-.129.071s.048.094.106.094c.082 0 .283.047.436.141.188.129.436.354.683.731a142.2 142.2 0 0 1 1.838 2.91c.153.283.224.483.224 1.025v.86c0 .165 0 .589-.023 1.001-.023.294-.094.483-.306.53a1.351 1.351 0 0 1-.306.047c-.059 0-.083.047-.083.083 0 .059.047.082.165.082.307 0 .966-.036 1.014-.036.059 0 .73.036 1.307.036.107 0 .166-.036.166-.082 0-.036-.023-.083-.083-.083-.094 0-.33-.023-.471-.047-.307-.047-.377-.235-.401-.53-.035-.413-.035-.836-.035-1.001v-.86c0-.33-.047-.648.129-1.001.212-.424 1.673-2.78 2.015-3.181.224-.271.318-.377.519-.494.165-.095.365-.13.483-.13.083 0 .129-.059.129-.106.001-.036-.058-.06-.129-.06zm13.779 7.411c-.105 0-.365-.023-.53-.047-.354-.047-.424-.306-.459-.648-.059-.495-.059-1.425-.059-2.557v-2.073c0-1.838 0-2.168.023-2.544.024-.413.118-.613.436-.672.142-.024.212-.035.294-.035.047 0 .094-.024.094-.071 0-.071-.059-.095-.188-.095-.354 0-1.096.036-1.155.036s-.801-.036-1.331-.036c-.13 0-.189.024-.189.095 0 .046.047.071.094.071.106 0 .307.011.4.035.389.082.483.271.507.672.023.376.023.707.023 2.544v.247c0 .059-.035.071-.07.071h-4.996c-.035 0-.071-.012-.071-.071v-.247c0-1.838 0-2.168.023-2.544.024-.413.118-.613.436-.672.142-.024.212-.035.295-.035.047 0 .094-.024.094-.071 0-.071-.059-.095-.188-.095-.354 0-1.096.036-1.154.036-.059 0-.801-.036-1.332-.036-.129 0-.188.024-.188.095 0 .046.047.071.094.071.106 0 .306.011.401.035.389.082.483.271.506.672.024.376.024.707.024 2.544v2.073c0 1.131 0 2.062-.059 2.557-.047.342-.106.601-.342.648a1.791 1.791 0 0 1-.354.047c-.071 0-.094.035-.094.071 0 .071.059.094.189.094.353 0 1.095-.036 1.154-.036.059 0 .801.036 1.449.036.129 0 .188-.036.188-.094 0-.036-.023-.071-.095-.071-.105 0-.365-.023-.53-.047-.354-.047-.424-.306-.459-.648-.059-.495-.059-1.425-.059-2.557V36.85c0-.059.036-.071.071-.071h4.996c.035 0 .07.024.07.071v1.237c0 1.131 0 2.062-.059 2.557-.047.342-.106.601-.342.648a1.791 1.791 0 0 1-.353.047c-.071 0-.095.035-.095.071 0 .071.059.094.188.094.354 0 1.096-.036 1.155-.036s.801.036 1.449.036c.129 0 .188-.036.188-.094.004-.036-.02-.071-.09-.071zm5.802-7.552c-2.863 0-4.111 2.298-4.111 3.912 0 1.803 1.213 3.936 4.053 3.936 2.498 0 4.159-1.85 4.159-4.088-.001-2.335-1.768-3.76-4.101-3.76zm.236 7.434c-1.873 0-3.275-1.461-3.275-3.794 0-2.18 1.249-3.263 2.981-3.263 1.638 0 3.099 1.261 3.099 3.664-.001 2.898-1.874 3.393-2.805 3.393zm14.639.024c-.424-.141-.495-.684-.529-1.037l-.708-6.15c-.023-.188-.083-.271-.153-.271-.071 0-.118.071-.166.165l-3.016 6.209-3.134-6.221c-.06-.118-.142-.153-.213-.153-.058 0-.105.071-.117.177l-.754 6.539c-.046.377-.059.742-.4.801-.154.024-.225.036-.307.036-.059 0-.106.035-.106.071 0 .071.071.094.177.094.282 0 .777-.036.872-.036.083 0 .578.036.966.036.118 0 .189-.023.189-.094 0-.036-.047-.071-.083-.071-.07 0-.223-.012-.4-.059-.153-.036-.248-.13-.248-.283 0-.165 0-.354.012-.506l.401-4.524h.047c.177.413 1.013 2.098 1.319 2.733.26.542.942 1.826 1.213 2.321.201.366.259.46.354.46s.153-.094.365-.531l2.498-5.113h.023l.495 5.066c.023.188.012.341-.047.354-.046.011-.07.046-.07.082 0 .047.047.083.294.106.377.036 1.532.059 1.767.059.118 0 .212-.036.212-.094 0-.047-.035-.071-.082-.071-.105-.001-.376-.001-.671-.095zm6.381-1.096c-.06 0-.084.036-.106.153-.06.401-.201.578-.473.695-.271.106-.765.106-1.036.106-1.024 0-1.213-.13-1.237-.802-.011-.2 0-1.366 0-1.708v-.836c0-.036.013-.071.071-.071.177 0 1.284.012 1.566.047.4.047.495.165.53.306.048.13.048.236.048.33 0 .059.023.094.07.094.07 0 .095-.105.095-.188 0-.071.023-.448.047-.648.023-.33.082-.495.082-.554 0-.059-.023-.082-.059-.082s-.083.059-.153.13c-.106.105-.26.117-.507.141-.235.023-1.603.023-1.731.023-.06 0-.06-.035-.06-.106v-2.721c0-.07.013-.106.06-.106.117 0 1.319.011 1.496.036.565.07.672.141.742.306.047.118.059.283.059.354 0 .083.024.129.083.129.047 0 .082-.059.095-.106.022-.118.047-.565.058-.66.024-.283.083-.4.083-.471 0-.047-.012-.094-.047-.094-.047 0-.094.035-.142.047-.082.012-.271.047-.472.059-.235.012-2.402 0-2.474 0-.06 0-.73-.023-1.202-.023-.117 0-.164.023-.164.083 0 .036.047.083.082.083.095 0 .271.012.354.023.342.047.4.212.424.554.023.318.023.601.023 2.156v1.767c0 .966 0 1.755-.059 2.168-.047.294-.07.495-.271.53-.095.012-.225.047-.318.047-.059 0-.083.047-.083.083 0 .059.059.082.166.082.164 0 .399-.012.601-.023.224-.012.424-.012.447-.012.153 0 .424 0 .86.024.424.012 1.024.035 1.802.035.4 0 .507 0 .578-.259.059-.212.141-.896.141-.966 0-.073-.012-.155-.069-.155zm4.249-2.992l-.295-.2c-1.024-.696-1.343-1.061-1.343-1.697 0-.707.624-1.084 1.379-1.084.93 0 1.271.377 1.343.495.058.106.141.377.153.495.011.082.022.13.094.13.07 0 .082-.071.082-.224 0-.683.047-1.014.047-1.061 0-.059-.023-.071-.105-.071s-.165 0-.365-.047a5.017 5.017 0 0 0-1.072-.118c-1.366 0-2.297.708-2.297 1.885 0 .695.365 1.308 1.484 2.145l.471.354c.919.683 1.308 1.024 1.308 1.744 0 .754-.529 1.331-1.555 1.331-.695 0-1.474-.259-1.638-.99-.035-.141-.035-.283-.035-.365 0-.082-.035-.118-.094-.118-.06 0-.083.059-.083.165-.012.165-.06.565-.06 1.06 0 .271.012.306.153.377.425.2 1.025.271 1.509.271.565 0 1.213-.071 1.648-.354.743-.483.967-1.12.967-1.708 0-.861-.437-1.556-1.696-2.415zm21.113 2.992c-.059 0-.082.036-.105.153-.059.401-.2.578-.472.695-.271.106-.766.106-1.036.106-1.025 0-1.214-.13-1.237-.802-.012-.2 0-1.366 0-1.708v-.836c0-.036.012-.071.071-.071.176 0 1.283.012 1.565.047.401.047.495.165.531.306.047.13.047.236.047.33 0 .059.023.094.07.094.071 0 .094-.105.094-.188 0-.071.024-.448.048-.648.023-.33.083-.495.083-.554 0-.059-.023-.082-.06-.082-.035 0-.082.059-.153.13-.105.105-.259.117-.506.141-.236.023-1.603.023-1.732.023-.059 0-.059-.035-.059-.106v-2.721c0-.07.012-.106.059-.106.118 0 1.319.011 1.496.036.565.07.672.141.742.306.047.118.06.283.06.354 0 .083.022.129.082.129.048 0 .083-.059.094-.106.024-.118.048-.565.06-.66.023-.283.082-.4.082-.471 0-.047-.012-.094-.047-.094-.047 0-.095.035-.141.047-.083.012-.271.047-.472.059-.235.012-2.404 0-2.475 0-.059 0-.729-.023-1.201-.023-.118 0-.165.023-.165.083 0 .036.047.083.082.083.095 0 .271.012.354.023.342.047.4.212.425.554.023.318.023.601.023 2.156v1.767c0 .966 0 1.755-.06 2.168-.047.294-.071.495-.271.53-.095.012-.224.047-.318.047-.052 0-.072.036-.078.069-.001-.035-.048-.069-.105-.069-.07 0-.235 0-.46-.036-.294-.046-.801-.176-1.438-.848-.683-.73-1.484-1.779-2.45-3.016 1.061-.978 1.426-1.85 1.426-2.722 0-.812-.519-1.39-.813-1.602-.624-.448-1.413-.519-2.156-.519-.363 0-1.26.036-1.39.036-.059 0-.801-.036-1.331-.036-.13 0-.188.024-.188.095 0 .046.047.071.095.071.105 0 .306.011.399.035.39.082.483.271.507.672.023.376.023.707.023 2.544v2.073c0 1.131 0 2.062-.059 2.557-.047.342-.106.601-.341.648a1.791 1.791 0 0 1-.354.047c-.071 0-.095.035-.095.071 0 .071.059.094.188.094.354 0 1.096-.036 1.107-.036.059 0 .802.036 1.449.036.13 0 .188-.036.188-.094 0-.036-.023-.071-.095-.071-.106 0-.365-.023-.529-.047-.354-.047-.425-.306-.46-.648-.06-.495-.06-1.425-.06-2.557v-.282c0-.059.024-.094.083-.094l1.449.023c.07 0 .106.023.153.071.235.306.789 1.095 1.284 1.743.672.884 1.084 1.461 1.591 1.732.306.165.601.224 1.26.224h.837c.207 0 .277-.024.28-.091l-.003.009c0 .059.06.082.166.082.165 0 .4-.012.601-.023.224-.012.424-.012.447-.012.153 0 .424 0 .86.024.424.012 1.025.035 1.803.035.4 0 .507 0 .577-.259.06-.212.142-.896.142-.966.003-.072-.009-.154-.068-.154zm-10.139-2.78c-.519 0-1.062-.083-1.237-.189a.153.153 0 0 1-.083-.141v-3.853c0-.071.036-.118.095-.141.118-.036.437-.071.789-.071 1.261 0 2.039.883 2.039 2.356 0 .896-.307 1.531-.719 1.814-.271.189-.602.225-.884.225zm19.973-3.441c-.424 0-.766.023-.883.023-.118 0-.613-.023-1.084-.023-.118 0-.2.012-.2.071 0 .036.011.094.082.094.082 0 .318.012.507.047.318.059.377.283.389.931l.106 5.019c-.318-.33-1.426-1.52-2.451-2.58-1.603-1.65-3.11-3.252-3.275-3.417-.105-.106-.282-.307-.4-.307-.082 0-.142.106-.142.507v5.738c0 .907-.035 1.178-.294 1.249a1.639 1.639 0 0 1-.424.059.08.08 0 0 0-.083.083c0 .07.059.082.165.082.472 0 .906-.036 1.001-.036s.507.036 1.096.036c.118 0 .188-.023.188-.082a.08.08 0 0 0-.082-.083c-.094 0-.33-.012-.519-.059-.282-.071-.377-.318-.4-1.143l-.118-4.725c.318.354 1.484 1.579 2.687 2.839a116.432 116.432 0 0 0 2.698 2.71c.577.53.684.613.789.613.07 0 .082-.059.082-.719l.024-5.867c0-.601.022-.801.365-.872.117-.023.2-.023.247-.023.07 0 .118-.059.118-.094 0-.059-.083-.071-.189-.071zm7.653-.071c-.048 0-.142.023-.295.047-.165.023-.4.047-.742.047h-3.911a8.65 8.65 0 0 1-.812-.047c-.283-.035-.39-.118-.46-.118-.036 0-.083.13-.106.189-.012.082-.224.978-.224 1.083 0 .059.047.083.07.083.048 0 .083-.012.106-.094.035-.071.047-.142.165-.318.153-.236.4-.306 1.049-.318l1.496-.023v4.206c0 .966 0 1.755-.047 2.168-.036.294-.095.495-.307.542a1.351 1.351 0 0 1-.307.047c-.059 0-.082.036-.082.071 0 .059.047.082.165.082.306 0 1.024-.036 1.071-.036.06 0 .719.036 1.284.036.118 0 .165-.036.165-.082 0-.036-.012-.083-.082-.083-.094 0-.33-.023-.471-.047-.318-.047-.365-.235-.401-.53-.047-.413-.047-1.202-.047-2.168v-4.206l1.296.023c.99.023 1.214.248 1.249.554l.012.106c.012.141.035.176.082.176.048 0 .095-.047.095-.129 0-.118.035-.836.035-1.143.001-.058.001-.118-.046-.118zm8.055 7.482c-.106 0-.26-.012-.412-.059-.225-.071-.507-.201-.885-1.096-.637-1.52-2.297-5.655-2.485-6.08-.105-.224-.142-.365-.248-.365-.069 0-.117.059-.247.389l-2.438 6.268c-.2.507-.401.86-.872.919a2.836 2.836 0 0 1-.306.023c-.048 0-.095.035-.095.083 0 .059.07.082.2.082.425 0 .942-.036 1.049-.036.118 0 .684.036.931.036.095 0 .153-.023.153-.082 0-.048-.023-.083-.106-.083h-.094c-.177 0-.354-.071-.354-.271 0-.177.059-.424.153-.671l.589-1.602c.023-.06.059-.083.106-.083h2.392c.059 0 .07.012.094.059l.931 2.297c.07.165-.035.248-.094.271-.048.024-.071.024-.071.071 0 .059.165.059.365.071.719.023 1.484.023 1.638.023.118 0 .235-.023.235-.082 0-.058-.07-.082-.129-.082zm-3.122-3.04h-2.098c-.035 0-.047-.023-.035-.071l.966-2.745c.06-.153.118-.153.177 0l1.025 2.745c.012.048.012.071-.035.071zm8.75 1.803c-.06 0-.095.059-.106.129-.036.2-.118.412-.247.566-.248.294-.707.306-1.249.306-.813 0-1.214-.071-1.379-.236-.188-.177-.212-.777-.212-2.25v-1.791c0-1.556 0-1.838.012-2.156.023-.354.082-.507.389-.566.118-.012.271-.024.342-.024.035 0 .083-.035.083-.07 0-.059-.06-.083-.166-.083-.317 0-1.095.023-1.143.023-.059 0-.707-.023-1.178-.023-.118 0-.165.023-.165.083 0 .036.047.083.082.083.095 0 .271.012.354.023.342.047.4.212.425.554.022.318.022.601.022 2.156v1.767c0 .966 0 1.755-.059 2.168-.047.294-.07.483-.271.53a1.464 1.464 0 0 1-.318.047c-.059 0-.082.047-.082.083 0 .059.059.082.164.082.165 0 .39-.012.602-.023.2-.012.377-.012.424-.012.307 0 .66.012 1.131.024.483.023 1.061.035 1.803.035.554 0 .59-.035.66-.271.083-.295.152-.896.152-1.001-.001-.106-.023-.153-.07-.153zm3.719-2.945l-.294-.2c-1.025-.696-1.344-1.061-1.344-1.697 0-.707.624-1.084 1.379-1.084.931 0 1.272.377 1.343.495.059.106.142.377.153.495.012.082.023.13.094.13s.083-.071.083-.224c0-.683.046-1.014.046-1.061 0-.059-.022-.071-.104-.071-.083 0-.165 0-.365-.047a5.017 5.017 0 0 0-1.072-.118c-1.367 0-2.298.708-2.298 1.885 0 .695.365 1.308 1.484 2.145l.471.354c.919.683 1.309 1.024 1.309 1.744 0 .754-.53 1.331-1.556 1.331-.694 0-1.473-.259-1.638-.99-.035-.141-.035-.283-.035-.365 0-.082-.035-.118-.094-.118-.06 0-.083.059-.083.165-.012.165-.058.565-.058 1.06 0 .271.011.306.152.377.424.2 1.025.271 1.508.271.565 0 1.213-.071 1.649-.354.742-.483.966-1.12.966-1.708 0-.861-.436-1.556-1.696-2.415zm16.654 4.182c-.425 0-1.025-.235-1.402-.459-.33-.188-.849-.507-1.626-1.167.519-.636 1.166-1.826 1.166-2.78 0-.118-.035-.212-.212-.236a13.076 13.076 0 0 0-1.414-.082c-.095 0-.188.023-.188.082 0 .059.07.083.141.083.177 0 .424.036.577.189a.8.8 0 0 1 .225.577c0 .719-.271 1.508-.602 1.956-.377-.318-1.826-1.673-2.227-2.109-1.226-1.332-1.861-2.097-1.861-3.016 0-1.107.789-1.543 1.496-1.543.519 0 .919.248 1.178.519.295.306.365.695.365 1.001 0 .177.013.224.071.224.047 0 .082-.023.117-.2.036-.177.083-1.001.083-1.354 0-.142-.012-.212-.153-.295-.318-.177-.824-.294-1.426-.294-1.578 0-2.533 1.237-2.533 2.167 0 .531.142 1.014.577 1.626-.918.542-1.803 1.46-1.803 2.839 0 1.025.802 2.604 2.863 2.604 1.744 0 2.675-1.001 2.945-1.272 1.296 1.025 1.579 1.107 2.451 1.107h1.154c.105 0 .2-.036.2-.082.002-.073-.057-.085-.162-.085zm-6.175-.295c-1.318 0-2.355-1.061-2.355-2.533 0-.943.447-1.579 1.061-1.979.33.483 1.083 1.319 1.39 1.649.306.331 1.473 1.45 2.133 1.991-.403.413-1.132.872-2.229.872zm17.76-1.672c-.07 0-.095.047-.117.176-.036.212-.188.731-.436.99-.472.483-1.167.589-2.051.589-2.521 0-4.253-2.062-4.253-4.312 0-1.202.2-2.251 1.061-3.075.412-.4 1.143-.86 2.709-.86 1.037 0 1.944.318 2.356.672.307.259.495.742.495 1.202 0 .165.012.248.095.248.07 0 .094-.071.105-.248s.012-.825.035-1.214c.024-.424.06-.565.06-.66 0-.07-.023-.117-.154-.129-.376-.023-.753-.094-1.201-.177a10.095 10.095 0 0 0-1.708-.141c-1.814 0-2.887.554-3.594 1.261-1.048 1.048-1.319 2.427-1.319 3.216 0 1.12.283 2.462 1.426 3.487.931.836 2.121 1.272 3.888 1.272.754 0 1.649-.082 2.121-.271.212-.095.235-.118.306-.342.118-.4.26-1.425.26-1.508-.001-.094-.025-.176-.084-.176zm5.568-5.585c-2.863 0-4.112 2.298-4.112 3.912 0 1.803 1.214 3.936 4.053 3.936 2.498 0 4.159-1.85 4.159-4.088 0-2.335-1.768-3.76-4.1-3.76zm.236 7.434c-1.873 0-3.275-1.461-3.275-3.794 0-2.18 1.249-3.263 2.98-3.263 1.638 0 3.099 1.261 3.099 3.664-.001 2.898-1.874 3.393-2.804 3.393zm13.485-7.293c-.425 0-.767.023-.885.023-.117 0-.612-.023-1.083-.023-.118 0-.201.012-.201.071 0 .036.013.094.083.094.083 0 .318.012.507.047.317.059.376.283.389.931l.105 5.019c-.317-.33-1.425-1.52-2.45-2.58-1.603-1.65-3.11-3.252-3.275-3.417-.106-.106-.283-.307-.4-.307-.083 0-.142.106-.142.507v5.738c0 .907-.035 1.178-.295 1.249a1.628 1.628 0 0 1-.424.059.08.08 0 0 0-.082.083c0 .07.059.082.165.082.471 0 .907-.036 1.001-.036.095 0 .507.036 1.096.036.117 0 .188-.023.188-.082a.08.08 0 0 0-.083-.083c-.094 0-.329-.012-.518-.059-.283-.071-.377-.318-.401-1.143l-.117-4.725c.318.354 1.484 1.579 2.686 2.839a120.858 120.858 0 0 0 2.698 2.71c.577.53.684.613.789.613.071 0 .083-.059.083-.719l.023-5.867c0-.601.024-.801.365-.872.118-.023.2-.023.248-.023.07 0 .117-.059.117-.094 0-.059-.082-.071-.187-.071zm8.453 5.761c-.07 0-.083.036-.106.142-.035.188-.177.613-.4.836-.412.413-.931.472-1.709.472-2.214 0-3.734-1.708-3.734-3.628 0-1.014.165-1.909.931-2.616.365-.341 1.002-.695 2.333-.695.919 0 1.673.248 2.038.554.271.212.436.612.436 1.001 0 .141.013.212.084.212.059 0 .105-.059.117-.212.012-.141.012-.695.023-1.025.023-.366.047-.483.047-.565 0-.059-.023-.106-.129-.106-.343-.011-.672-.082-1.061-.153a10.115 10.115 0 0 0-1.509-.118c-1.59 0-2.532.472-3.157 1.072-.919.896-1.166 2.062-1.166 2.733 0 .954.247 2.097 1.261 2.969.812.707 1.861 1.073 3.417 1.073.671 0 1.448-.059 1.872-.224.178-.071.2-.106.26-.294.105-.341.247-1.213.247-1.284s-.048-.144-.095-.144zm4.391 1.65c-.095 0-.318-.023-.472-.047-.307-.047-.342-.235-.378-.53-.047-.413-.047-1.202-.047-2.168v-1.767c0-1.556 0-1.838.012-2.156.024-.354.082-.495.366-.554.117-.023.188-.023.259-.023.035 0 .082-.047.082-.083 0-.059-.047-.083-.165-.083-.317 0-.989.023-1.036.023-.059 0-.707-.023-1.049-.023-.118 0-.165.023-.165.083 0 .036.035.083.083.083.07 0 .2.012.317.035.224.047.307.201.33.542.023.318.023.601.023 2.156v1.767c0 .966-.012 1.755-.059 2.168-.035.294-.071.483-.271.53a1.455 1.455 0 0 1-.317.047c-.06 0-.083.047-.083.083 0 .059.06.082.165.082.318 0 .967-.036 1.025-.036.047 0 .719.036 1.295.036.118 0 .166-.036.166-.082.001-.036-.023-.083-.081-.083zm6.535-1.19c-.059 0-.082.036-.105.153-.06.401-.2.578-.472.695-.271.106-.766.106-1.036.106-1.025 0-1.214-.13-1.237-.802-.012-.2 0-1.366 0-1.708v-.836c0-.036.012-.071.07-.071.177 0 1.284.012 1.566.047.401.047.495.165.531.306.047.13.047.236.047.33 0 .059.023.094.07.094.071 0 .094-.105.094-.188 0-.071.024-.448.048-.648.023-.33.082-.495.082-.554 0-.059-.023-.082-.059-.082s-.082.059-.153.13c-.105.105-.259.117-.506.141-.236.023-1.603.023-1.732.023-.059 0-.059-.035-.059-.106v-2.721c0-.07.012-.106.059-.106.118 0 1.319.011 1.496.036.565.07.672.141.742.306.048.118.06.283.06.354 0 .083.022.129.082.129.047 0 .082-.059.094-.106.024-.118.047-.565.06-.66.023-.283.082-.4.082-.471 0-.047-.011-.094-.047-.094-.048 0-.095.035-.142.047-.082.012-.271.047-.471.059-.236.012-2.404 0-2.475 0-.059 0-.73-.023-1.201-.023-.118 0-.165.023-.165.083 0 .036.047.083.082.083.095 0 .271.012.354.023.342.047.4.212.424.554.024.318.024.601.024 2.156v1.767c0 .966 0 1.755-.06 2.168-.047.294-.07.495-.271.53-.095.012-.224.047-.318.047-.059 0-.082.047-.082.083 0 .059.059.082.164.082.166 0 .4-.012.601-.023.225-.012.425-.012.448-.012.153 0 .424 0 .86.024.424.012 1.025.035 1.803.035.4 0 .507 0 .577-.259.059-.212.142-.896.142-.966 0-.073-.012-.155-.071-.155zm9.563 1.19c-.059 0-.165 0-.365-.036-.259-.035-.601-.129-1.155-.695-.6-.625-1.318-1.531-2.168-2.592.967-.824 1.273-1.543 1.273-2.286 0-.695-.46-1.178-.719-1.367-.542-.376-1.272-.436-1.933-.436-.317 0-1.189.023-1.296.023-.059 0-.754-.023-1.226-.023-.117 0-.164.023-.164.083 0 .036.047.083.082.083.095 0 .271.012.354.023.341.047.4.212.424.554.023.318.023.601.023 2.156v1.767c0 .966 0 1.755-.059 2.168-.048.294-.07.483-.271.53a1.455 1.455 0 0 1-.317.047c-.059 0-.082.047-.082.083 0 .059.059.082.164.082.318 0 1.014-.036 1.025-.036.047 0 .707.036 1.272.036.118 0 .165-.036.165-.082 0-.036-.012-.083-.083-.083-.094 0-.318-.023-.459-.047-.318-.047-.377-.235-.413-.53-.047-.413-.047-1.19-.047-2.156v-.235c0-.059.023-.083.071-.083l1.319.023c.071 0 .094.012.142.059.224.271.684.918 1.118 1.461.59.754.967 1.237 1.415 1.472.259.142.518.201 1.107.201h.647c.188 0 .248-.023.248-.082.003-.035-.033-.082-.092-.082zm-3.982-3.558c-.247.165-.529.176-.777.176-.459 0-.989-.071-1.143-.153-.048-.036-.071-.071-.071-.13v-3.216c0-.059.035-.095.083-.118a4.57 4.57 0 0 1 .742-.059c1.106 0 1.791.719 1.791 1.967 0 .767-.272 1.297-.625 1.533zm11.424-.035c-.317 0-.966.023-1.013.023-.059 0-.755-.023-1.226-.023-.118 0-.165.012-.165.082 0 .036.047.083.082.083.095 0 .271.012.354.023.425.082.448.201.448 1.013v1.732c0 .188-.083.236-.213.306-.271.153-.754.188-1.118.188-.955 0-1.826-.283-2.651-1.048-.365-.342-1.096-1.355-1.096-2.769 0-1.167.424-2.062 1.024-2.521.79-.601 1.544-.647 2.168-.647 1.344 0 2.133.4 2.393.777.165.235.224.53.235.66 0 .094.012.153.07.153.071 0 .118-.047.118-.212 0-1.002.059-1.272.059-1.414 0-.047-.023-.095-.129-.095a4.51 4.51 0 0 1-.837-.106 8.665 8.665 0 0 0-1.591-.165c-.789 0-1.825.071-2.756.637-.92.554-1.732 1.685-1.732 3.287 0 1.249.601 2.321 1.236 2.851 1.155.978 2.628 1.073 3.418 1.073.6 0 1.543-.106 2.203-.448.129-.07.141-.082.141-.542v-1.119c0-.424 0-.719.012-1.036.023-.354.106-.507.389-.554.118-.023.188-.023.26-.023.035 0 .082-.047.082-.083 0-.072-.047-.083-.165-.083zm6.334 2.403c-.06 0-.083.036-.106.153-.059.401-.2.578-.471.695-.271.106-.767.106-1.037.106-1.025 0-1.214-.13-1.237-.802-.012-.2 0-1.366 0-1.708v-.836c0-.036.012-.071.07-.071.178 0 1.284.012 1.567.047.4.047.495.165.53.306.047.13.047.236.047.33 0 .059.023.094.071.094.07 0 .094-.105.094-.188 0-.071.024-.448.048-.648.023-.33.081-.495.081-.554 0-.059-.022-.082-.058-.082-.036 0-.083.059-.153.13-.106.105-.26.117-.507.141-.235.023-1.603.023-1.732.023-.059 0-.059-.035-.059-.106v-2.721c0-.07.012-.106.059-.106.118 0 1.32.011 1.497.036.564.07.671.141.742.306.047.118.059.283.059.354 0 .083.023.129.082.129.048 0 .083-.059.095-.106.023-.118.047-.565.059-.66.023-.283.082-.4.082-.471 0-.047-.011-.094-.046-.094-.048 0-.095.035-.142.047-.082.012-.271.047-.472.059-.235.012-2.403 0-2.474 0-.06 0-.73-.023-1.202-.023-.118 0-.165.023-.165.083 0 .036.047.083.083.083.094 0 .271.012.354.023.341.047.4.212.424.554.023.318.023.601.023 2.156v1.767c0 .966 0 1.755-.059 2.168-.048.294-.071.495-.271.53-.095.012-.224.047-.317.047-.06 0-.083.047-.083.083 0 .059.059.082.165.082.165 0 .4-.012.601-.023.224-.012.424-.012.448-.012.153 0 .424 0 .86.024.424.012 1.024.035 1.803.035.399 0 .506 0 .576-.259.059-.212.142-.896.142-.966-.001-.073-.013-.155-.071-.155z"/><path fill-rule="evenodd" clip-rule="evenodd" fill="#FFF" d="M180.963 17.433c-2.437-.898-5.516-.898-5.516-.898-5.13 0-6.798 4.233-6.798 4.233 2.053-1.796 5.9-2.181 8.979-1.026 3.079 1.155 4.874.898 4.874.898 4.746 0 6.285-5.9 6.285-5.9-1.796 2.822-5.387 3.591-7.824 2.693z"/><path fill-rule="evenodd" clip-rule="evenodd" fill="#BA1010" d="M180.229 18.166c-2.437-.898-5.515-.898-5.515-.898-5.131 0-6.798 4.232-6.798 4.232 2.052-1.795 5.9-2.18 8.979-1.026s4.874.898 4.874.898c4.745 0 6.284-5.9 6.284-5.9-1.794 2.822-5.386 3.592-7.824 2.694z"/><path fill-rule="evenodd" clip-rule="evenodd" fill="#FFF" d="M78.66 14.3c-2.646-.975-5.988-.975-5.988-.975-5.57 0-7.381 4.596-7.381 4.596 2.228-1.95 6.406-2.368 9.748-1.114 3.342 1.253 5.292.975 5.292.975 5.153 0 6.824-6.406 6.824-6.406-1.949 3.063-5.848 3.898-8.495 2.924z"/><path fill-rule="evenodd" clip-rule="evenodd" fill="#BA1010" d="M77.865 15.095c-2.646-.975-5.988-.975-5.988-.975-5.571 0-7.381 4.596-7.381 4.596 2.228-1.95 6.406-2.368 9.748-1.114s5.292.975 5.292.975c5.153 0 6.824-6.406 6.824-6.406-1.949 3.063-5.849 3.899-8.495 2.924z"/><path fill-rule="evenodd" clip-rule="evenodd" fill="#4D4D4D" d="M53.406 1.766h1.084v43.912h-1.084z"/><path fill="#4D4D4D" d="M12.709 32.132c-.375 0-.927-.05-1.278-.101-.751-.1-.902-.651-.977-1.353-.065-.561-.096-1.37-.111-2.338h-.024V16.632h.022c.007-.446.019-.734.038-1.037.05-.877.25-1.303.927-1.428.301-.05.526-.075.727-.075.301 0 .451-.05.451-.226s-.175-.226-.526-.226c-.977 0-2.556.075-3.157.075-.677 0-2.255-.075-3.608-.075-.351 0-.526.05-.526.226s.15.226.426.226c.351 0 .776.025.977.075.827.175 1.028.576 1.078 1.428.05.802.05 1.503.05 5.312v4.41c0 2.306 0 4.285-.125 5.337-.1.727-.225 1.278-.727 1.378-.225.05-.526.101-.902.101-.301 0-.401.075-.401.2 0 .176.175.25.501.25 1.002 0 2.581-.075 3.157-.075.701 0 2.28.075 3.909.075.301 0 .501-.075.501-.25-.001-.125-.127-.201-.402-.201zm30.417 0c-.301 0-.677-.025-1.052-.101-.526-.125-1.253-.476-2.205-2.731-1.604-3.809-5.612-14.031-6.214-15.409-.25-.577-.401-.802-.626-.802-.251 0-.401.276-.702 1.002l-6.289 15.735c-.438 1.094-.856 1.882-1.723 2.164-.631-.147-.787-.657-.857-1.312-.125-1.078-.125-3.057-.125-5.362v-4.41c0-3.808 0-4.51.05-5.312.05-.877.25-1.303.927-1.428.301-.05.526-.075.727-.075.301 0 .451-.05.451-.226s-.175-.226-.526-.226c-.977 0-2.556.075-3.157.075-.676 0-2.255-.075-3.608-.075-.351 0-.526.05-.526.226s.15.226.426.226c.351 0 .777.025.978.075.827.175 1.027.576 1.077 1.428.05.802.05 1.503.05 5.312v.526c0 .081-.034.121-.076.146v1.409c.042.023.076.06.076.124v2.205c0 2.306 0 4.285-.125 5.337-.101.727-.226 1.278-.727 1.378-.226.05-.526.101-.902.101-.301 0-.401.075-.401.2 0 .176.175.25.526.25.978 0 2.556-.075 3.132-.075.288 0 .728.013 1.254.027.078.035.192.047.35.047.347 0 .697-.005 1.032-.013.411.008.839.013 1.273.013a.851.851 0 0 0 .374-.067c.123-.004.226-.007.278-.007.777 0 1.854.075 2.656.075.276 0 .426-.05.426-.25 0-.15-.075-.2-.375-.2h-.376c-.777 0-1.002-.326-1.002-.777 0-.301.125-.902.376-1.528l.082-.217h-.022l3.903-10.538h.09l.232-.62c.025-.101.075-.226.15-.226s.101.125.125.226l1.111 3.049 3.17 8.304-.073-.001.652 1.728c.125.301-.05.526-.225.577-.251.025-.351.075-.351.225 0 .176.301.176.751.201 2.004.05 3.833.05 4.736.05.927 0 1.152-.05 1.152-.25-.002-.178-.127-.203-.328-.203z"/><path fill="#FFF" d="M26.814 22.575c-14.115-3.257-17.644 3.8-17.644 3.8 5.157-4.208 15.336-1.086 16.829-.408 1.493.679 4.75.815 4.75.815 5.941 0 8.642-4.062 9.757-6.631-1.211 2.027-4.54 4.536-13.692 2.424z"/><path fill="#BA1010" d="M26.271 23.118c-14.115-3.257-17.644 3.8-17.644 3.8 5.158-4.207 15.337-1.085 16.83-.407 1.493.679 4.75.814 4.75.814 5.942 0 8.643-4.062 9.757-6.63-1.212 2.025-4.541 4.535-13.693 2.423zm13.693-2.425z"/><path fill-rule="evenodd" clip-rule="evenodd" fill="#4D4D4D" d="M23.79 0C10.651 0 0 10.651 0 23.79s10.651 23.79 23.79 23.79 23.79-10.651 23.79-23.791C47.58 10.651 36.929 0 23.79 0zm.036 46.025c-12.3 0-22.271-9.971-22.271-22.27 0-12.3 9.971-22.271 22.271-22.271 12.299 0 22.27 9.971 22.27 22.271 0 12.299-9.971 22.27-22.27 22.27z"/></svg>