<svg xmlns="http://www.w3.org/2000/svg" width="56.296" height="48.889" viewBox="0 0 56.296 48.889"><path fill="#4E4E4E" d="M23.259 21.426l-.009-.009 4.277-4.277.008.008c.166-.161.275-.262.393-.365.339-.302.568-.384.86-.183.129.091.22.165.293.238.11.11.184.146.247.083.064-.064.019-.147-.109-.275-.357-.357-.961-.906-1.181-1.126-.247-.247-.796-.852-1.291-1.346-.128-.128-.21-.173-.275-.109-.063.063-.027.137.073.238a2.6 2.6 0 0 1 .33.385c.238.365.165.585-.128.915-.274.312-.531.567-1.922 1.959l-1.611 1.611c-.842.843-1.565 1.565-1.996 1.905-.302.229-.549.384-.769.238a2.101 2.101 0 0 1-.366-.293c-.11-.11-.174-.119-.22-.073-.064.064-.028.156.091.274.366.367.971.916 1.181 1.126.256.256.806.861 1.4 1.456.11.11.211.156.275.091.045-.045.028-.119-.073-.22a5.259 5.259 0 0 1-.43-.503c-.238-.311-.091-.568.138-.851.181-.23.467-.538.814-.897zm13.795 3.239c.119-.302.147-.44.065-.521-.093-.092-.248-.046-.623.11l-8.047 3.451c-.565.242-1.009.356-1.434.132-.15-.271-.025-.507.181-.764.348-.439 1.071-1.162 1.914-2.005l1.61-1.611c1.392-1.392 1.648-1.647 1.959-1.922.339-.302.567-.384.86-.183.128.091.22.165.293.238.11.11.184.146.247.083.064-.064.019-.147-.109-.275-.357-.357-.962-.906-1.181-1.126-.248-.247-.797-.852-1.291-1.346-.128-.128-.211-.173-.274-.109-.064.063-.028.137.072.238.129.128.275.292.33.384.238.366.165.585-.128.915-.274.311-.53.567-1.922 1.959l-.193.192c-.029.029-.056.032-.081.026l-.515.515a.068.068 0 0 1-.018.073l-.805.805c-.842.842-1.565 1.565-1.996 1.904-.302.229-.549.384-.769.238a2.101 2.101 0 0 1-.366-.293c-.11-.11-.174-.119-.22-.073-.064.064-.027.156.101.284.357.357.961.906 1.172 1.117.104.104.266.275.451.471a.484.484 0 0 0 .107.143c.127.127.256.252.382.372.147.153.302.312.46.471.057.057.11.093.159.109.043.039.088.082.106.1.284.284.65.705.942.998.101.101.174.137.247.063.055-.055.046-.1-.063-.21l-.137-.137c-.284-.284-.248-.486-.083-.65.11-.11.376-.283.696-.42l.11-.05-.008-.009 5.276-2.424.033.033.311-.142c.046-.027.109-.055.137-.027.028.028-.009.083-.036.128l-.703 1.509-1.881 4.203-.025-.027-.394.87c-.063.155-.21.173-.293.128-.101-.082-.155-.101-.21-.046-.064.064.046.174.201.348a96.427 96.427 0 0 0 1.712 1.749c.338.338.439.402.513.329.064-.064.027-.118-.046-.192a2.859 2.859 0 0 1-.349-.422c-.146-.237-.283-.631.193-1.803.807-1.979 3.077-7.178 3.36-7.901z"/><path fill="#FFF" d="M37.269 29.449c-1.181.3-3.31.011-5.886-4.112-3.967-6.347-7.834-5.057-7.834-5.057 3.421.347 6 5.207 6.297 6 .297.793 1.438 2.033 1.438 2.033 2.172 2.171 4.643 1.673 5.987 1.142l-.002-.006z"/><path fill="#B92025" d="M36.874 29.449c-1.183.3-3.311.01-5.887-4.111-3.967-6.348-7.834-5.058-7.834-5.058 3.421.347 6 5.207 6.296 5.999.297.794 1.438 2.034 1.438 2.034 2.172 2.171 4.643 1.672 5.988 1.141l-.001-.005z"/><path fill-rule="evenodd" clip-rule="evenodd" fill="#4E4E4E" d="M38.526 15.985c-4.8-4.8-12.583-4.8-17.383 0-4.8 4.801-4.8 12.583 0 17.383 4.8 4.8 12.583 4.801 17.384 0 4.8-4.8 4.799-12.583-.001-17.383zm-.53 16.828c-4.493 4.493-11.778 4.493-16.271 0-4.494-4.494-4.494-11.779 0-16.272 4.493-4.493 11.779-4.494 16.272 0 4.493 4.493 4.493 11.779-.001 16.272z"/><circle clip-rule="evenodd" fill="none" cx="29.835" cy="24.675" r="12.513"/><text transform="rotate(-13.326 67.96 -100.612)"><tspan x="0" y="0" fill="#4E4E4E" font-family="'SourceSansPro-Regular'" font-size="6.984">C</tspan><tspan x="3.694" y="-.022" fill="#4E4E4E" font-family="'SourceSansPro-Regular'" font-size="6.984" rotate="16.157">E</tspan><tspan x="6.937" y=".845" fill="#4E4E4E" font-family="'SourceSansPro-Regular'" font-size="6.984" rotate="32.24">R</tspan><tspan x="10.133" y="2.834" fill="#4E4E4E" font-family="'SourceSansPro-Regular'" font-size="6.984" rotate="48.568">T</tspan><tspan x="12.393" y="5.506" fill="#4E4E4E" font-family="'SourceSansPro-Regular'" font-size="6.984" rotate="60.301">I</tspan><tspan x="13.283" y="6.868" fill="#4E4E4E" font-family="'SourceSansPro-Regular'" font-size="6.984" rotate="71.345">F</tspan><tspan x="14.259" y="9.929" fill="#4E4E4E" font-family="'SourceSansPro-Regular'" font-size="6.984" rotate="82.289">I</tspan><tspan x="14.591" y="11.519" fill="#4E4E4E" font-family="'SourceSansPro-Regular'" font-size="6.984" rotate="93.799">E</tspan><tspan x="14.46" y="14.879" fill="#4E4E4E" font-family="'SourceSansPro-Regular'" font-size="6.984" rotate="110.518">D</tspan><tspan x="12.925" y="18.624" fill="#4E4E4E" font-family="'SourceSansPro-Regular'" font-size="6.984" rotate="122.428"> </tspan><tspan x="12.412" y="19.726" fill="#4E4E4E" font-family="'SourceSansPro-Regular'" font-size="6.984" rotate="133.909">B</tspan><tspan x="9.757" y="22.463" fill="#4E4E4E" font-family="'SourceSansPro-Regular'" font-size="6.984" rotate="149.594">Y</tspan><tspan x="7.044" y="23.981" fill="#4E4E4E" font-family="'SourceSansPro-Regular'" font-size="6.984" rotate="159.455"> </tspan><tspan x="6.022" y="24.574" fill="#4E4E4E" font-family="'SourceSansPro-Regular'" font-size="6.984" rotate="171.771">H</tspan><tspan x="1.858" y="25.241" fill="#4E4E4E" font-family="'SourceSansPro-Regular'" font-size="6.984" rotate="-168.965">O</tspan><tspan x="-2.349" y="24.526" fill="#4E4E4E" font-family="'SourceSansPro-Regular'" font-size="6.984" rotate="-148.665">M</tspan><tspan x="-6.352" y="22.03" fill="#4E4E4E" font-family="'SourceSansPro-Regular'" font-size="6.984" rotate="-130.441">E</tspan><tspan x="-8.59" y="19.474" fill="#4E4E4E" font-family="'SourceSansPro-Regular'" font-size="6.984" rotate="-114.678">A</tspan><tspan x="-10.1" y="16.345" fill="#4E4E4E" font-family="'SourceSansPro-Regular'" font-size="6.984" rotate="-98.405">R</tspan><tspan x="-10.744" y="12.661" fill="#4E4E4E" font-family="'SourceSansPro-Regular'" font-size="6.984" rotate="-80.2">O</tspan><tspan x="-10.062" y="8.433" fill="#4E4E4E" font-family="'SourceSansPro-Regular'" font-size="6.984" rotate="-61.018">U</tspan><tspan x="-8.096" y="4.76" fill="#4E4E4E" font-family="'SourceSansPro-Regular'" font-size="6.984" rotate="-42.232">N</tspan><tspan x="-5.046" y="1.938" fill="#4E4E4E" font-family="'SourceSansPro-Regular'" font-size="6.984" rotate="-23.811">D</tspan></text></svg>